<?xml version="1.0" encoding="UTF-8" standalone="no"?>
<svg
   t="1721957992064"
   class="icon"
   viewBox="0 0 1024 1024"
   version="1.1"
   p-id="34660"
   width="64"
   height="64"
   id="svg2"
   sodipodi:docname="aiExploration.svg"
   inkscape:version="1.3.2 (091e20e, 2023-11-25, custom)"
   xmlns:inkscape="http://www.inkscape.org/namespaces/inkscape"
   xmlns:sodipodi="http://sodipodi.sourceforge.net/DTD/sodipodi-0.dtd"
   xmlns:xlink="http://www.w3.org/1999/xlink"
   xmlns="http://www.w3.org/2000/svg"
   xmlns:svg="http://www.w3.org/2000/svg">
  <defs
     id="defs2">
    <linearGradient
       id="linearGradient2"
       inkscape:collect="always">
      <stop
         style="stop-color:#3248d2;stop-opacity:1;"
         offset="0"
         id="stop2" />
      <stop
         style="stop-color:#8291ed;stop-opacity:0.68000001;"
         offset="1"
         id="stop3" />
    </linearGradient>
    <linearGradient
       inkscape:collect="always"
       xlink:href="#linearGradient2"
       id="linearGradient3"
       x1="219.42857"
       y1="512"
       x2="804.57143"
       y2="512"
       gradientUnits="userSpaceOnUse" />
  </defs>
  <sodipodi:namedview
     id="namedview2"
     pagecolor="#ffffff"
     bordercolor="#000000"
     borderopacity="0.25"
     inkscape:showpageshadow="2"
     inkscape:pageopacity="0.0"
     inkscape:pagecheckerboard="0"
     inkscape:deskcolor="#d1d1d1"
     inkscape:zoom="12.828125"
     inkscape:cx="32"
     inkscape:cy="32"
     inkscape:window-width="1920"
     inkscape:window-height="1017"
     inkscape:window-x="-8"
     inkscape:window-y="-8"
     inkscape:window-maximized="1"
     inkscape:current-layer="svg2" />
  <path
     d="M464.457143 548.571429a10.971429 10.971429 0 0 1 10.971428 10.971428v234.057143a10.971429 10.971429 0 0 1-10.971428 10.971429H230.4a10.971429 10.971429 0 0 1-10.971429-10.971429v-234.057143a10.971429 10.971429 0 0 1 10.971429-10.971428h234.057143z m329.142857 0a10.971429 10.971429 0 0 1 10.971429 10.971428v234.057143a10.971429 10.971429 0 0 1-10.971429 10.971429h-234.057143a10.971429 10.971429 0 0 1-10.971428-10.971429v-234.057143a10.971429 10.971429 0 0 1 10.971428-10.971428h234.057143z m0-329.142858a10.971429 10.971429 0 0 1 10.971429 10.971429v234.057143a10.971429 10.971429 0 0 1-10.971429 10.971428h-234.057143a10.971429 10.971429 0 0 1-10.971428-10.971428V230.4a10.971429 10.971429 0 0 1 10.971428-10.971429h234.057143z"
     fill="#5A66C7"
     p-id="34661"
     id="path1"
     style="fill:url(#linearGradient3)" />
  <path
     d="M219.428571 219.428571m10.971429 0l234.057143 0q10.971429 0 10.971428 10.971429l0 234.057143q0 10.971429-10.971428 10.971428l-234.057143 0q-10.971429 0-10.971429-10.971428l0-234.057143q0-10.971429 10.971429-10.971429Z"
     fill="#AFB2F0"
     p-id="34662"
     id="path2"
     style="fill:#c2d1ff;fill-opacity:1" />
</svg>
